<svg xmlns="http://www.w3.org/2000/svg" viewBox="-20 -20 300 80">
    <defs>
        <linearGradient id="grad" x1="0" y1="0" x2="0" y2="1">
            <stop offset="0%" stop-color="#22c55e"/>
            <stop offset="100%" stop-color="#16a34a"/>
        </linearGradient>
    </defs>

    <circle cx="16" cy="16" r="24" fill="url(#grad)"/>

    <g transform="translate(16,16) scale(0.0625) translate(-256,-256)" fill="#fff">
        <path d="M272 96c-78.6 0-145.1 51.5-167.7 122.5c33.6-17 71.5-26.5 111.7-26.5h88c8.8 0 16 7.2 16 16s-7.2 16-16 16H288 216s0 0 0 0c-16.6 0-32.7 1.9-48.2 5.4c-25.9 5.9-50 16.4-71.4 30.7c0 0 0 0 0 0C38.3 298.8 0 364.9 0 440v16c0 13.3 10.7 24 24 24s24-10.7 24-24V440c0-48.7 20.7-92.5 53.8-123.2C121.6 392.3 190.3 448 272 448l1 0c132.1-.7 239-130.9 239-291.4c0-42.6-7.5-83.1-21.1-119.6c-2.6-6.9-12.7-6.6-16.2-.1C455.9 72.1 418.7 96 376 96L272 96z"/>
    </g>

    <text x="45" y="25" fill="#F0F0F0" font-family="sans-serif" font-size="26" font-weight="bold">Broccoflower</text>
</svg>
