<?xml version="1.0" encoding="iso-8859-1"?>
<!-- Uploaded to: SVG Repo, www.svgrepo.com, Generator: SVG Repo Mixer Tools -->
<svg fill="#000000" height="800px" width="800px" version="1.1" id="Layer_1" xmlns="http://www.w3.org/2000/svg" xmlns:xlink="http://www.w3.org/1999/xlink" 
	 viewBox="0 0 502.4 502.4" xml:space="preserve">
<g>
	<g>
		<path d="M451.2,220.267H276.266l-2.133-49.067c25.6-19.2,82.133-65.067,82.133-105.6c0-36.267-29.867-65.067-66.133-65.067
			c-16,1.067-30.933,6.4-41.6,16c-11.733-9.6-25.6-14.933-41.6-14.933c-34.133,0-61.867,28.8-62.933,65.067
			c0,35.2,55.467,81.067,87.467,104.533l2.133,49.067L51.2,219.2C21.333,219.2,0,250.133,0,289.6v9.6V328v120.533
			c0,29.867,23.467,53.333,51.2,53.333h398.933c28.8,0,51.2-23.467,52.267-53.333v-121.6v-28.8v-7.467
			C502.4,250.133,480,220.267,451.2,220.267z M450.133,261.867L450.133,261.867c3.2,2.133,9.6,11.733,9.6,28.8v7.467v11.733
			c-32,3.2-60.8-16-78.933-48H450.133z M186.666,67.733c0-13.867,9.6-24.533,22.4-24.533c9.6,0,18.133,6.4,22.4,16
			c3.2,8.533,11.733,14.933,20.267,13.867s16-6.4,19.2-14.933c3.2-9.6,11.733-16,21.333-16c12.8,0,23.467,10.667,23.467,23.467
			c0,14.933-29.867,45.867-61.867,69.333C218.666,109.333,187.733,78.4,186.666,67.733z M332.8,261.867
			C320,309.867,285.867,344,247.466,344s-73.6-34.133-85.333-82.133H332.8z M42.666,289.6L42.666,289.6
			c0-23.467,8.534-28.8,8.534-28.8h62.933c-16,29.867-42.667,48-71.467,48V289.6z M459.733,448.533c0,6.4-3.201,11.733-8.534,11.733
			h-400c-4.267,0-8.533-5.333-8.533-11.733v-97.067c34.133,0,67.2-17.067,90.667-45.867c23.467,48,66.133,80,114.133,80
			s90.667-32,113.067-80c24.533,28.8,57.6,45.867,92.8,45.867c2.133,0,4.267,0,6.4,0V448.533z"/>
	</g>
</g>
</svg>